<svg preserveAspectRatio="none" overflow="visible" style="display: block;" width="40" height="40" viewBox="0 0 40 40" fill="none" xmlns="http://www.w3.org/2000/svg">
<g id="record">
<circle id="Ellipse 14" cx="20" cy="20" r="20" fill="#D0BFAA"/>
<path id="Vector" d="M20 21.4583C21.2227 21.4583 22.2135 20.4792 22.2135 19.2708V16.3542C22.2135 15.1458 21.2227 14.1667 20 14.1667C18.7773 14.1667 17.7865 15.1458 17.7865 16.3542V19.2708C17.7865 20.4792 18.7773 21.4583 20 21.4583ZM24.2969 19.2448C24.2969 19.1875 24.25 19.1406 24.1927 19.1406H23.4115C23.3542 19.1406 23.3073 19.1875 23.3073 19.2448C23.3073 21.0716 21.8268 22.5521 20 22.5521C18.1732 22.5521 16.6927 21.0716 16.6927 19.2448C16.6927 19.1875 16.6458 19.1406 16.5885 19.1406H15.8073C15.75 19.1406 15.7031 19.1875 15.7031 19.2448C15.7031 21.4414 17.3516 23.2539 19.4792 23.5104V24.8438H17.5872C17.4089 24.8438 17.2656 25.0299 17.2656 25.2604V25.7292C17.2656 25.7865 17.3021 25.8333 17.3464 25.8333H22.6536C22.6979 25.8333 22.7344 25.7865 22.7344 25.7292V25.2604C22.7344 25.0299 22.5911 24.8438 22.4128 24.8438H20.4687V23.5169C22.6211 23.2826 24.2969 21.4596 24.2969 19.2448Z" fill="#5F5A52"/>
</g>
</svg>
